<svg xmlns="http://www.w3.org/2000/svg" xmlns:xlink="http://www.w3.org/1999/xlink" version="1.1" id="layer" x="0px" y="0px" style="enable-background:new 0 0 652 652;" xml:space="preserve" viewBox="21.8 273.6 599.9 94.3">
<style type="text/css">
	.st0{fill:#003D29;}
	.st1{fill:#0AAD0A;}
	.st2{fill:#FF7009;}
</style>
<path class="st0" d="M254,325.3l-8-0.7c-5.2-0.5-7.4-2.3-7.4-5.5c0-3.8,3.2-6.2,9.5-6.2c5.9,0,8.8,2.6,9.3,6.7h18.8  c-1.2-12.2-9.8-20.9-27.5-20.9c-18.4,0-28.5,9.4-28.5,21.8c0,11.6,6.3,17.9,22.1,19.2l7.9,0.6c6.2,0.5,8.4,2.6,8.4,6.2  c0,3.9-3.2,6.7-9.8,6.7c-6.2,0-9.8-2.8-10.5-7.6h-19.8c1.7,13.3,11.1,22.1,30.2,22.1c18.5,0,28.7-9.5,28.7-22.2  C277.2,333.1,270.4,326.8,254,325.3z M189.3,298.6c-11.8,0-18.8,6.2-22.1,18.8H166v-17.6h-18.6v66.9h19.8v-39  c0-8.9,4.6-13.8,12.9-13.8c8.2,0,12.2,5.1,12.2,13.7v39.1h19.8v-42.6C212.1,307.9,203.6,298.6,189.3,298.6L189.3,298.6z   M128.2,273.6c-6.7,0-11.8,4.4-11.8,11.1c0,6.7,5,11.1,11.7,11.1s11.7-4.4,11.7-11.1C139.8,278.1,134.9,273.6,128.2,273.6z   M138.1,299.7h-19.8v66.9h19.8V299.7z M308.3,285.6h-12.6c-0.4,10.8-5,15.4-15.3,16.3v13.6h8.1v29.4c0,14.8,8.5,22.9,25.3,22.9  c3.2,0,6.3-0.4,9.4-1.2v-15.9c-1.6,0.3-3.2,0.4-4.8,0.4c-7.1,0-10.1-2.7-10.1-10.1v-25.5h17.4v-15.7h-17.4  C308.3,299.7,308.3,285.6,308.3,285.6z M621.7,315.5v-15.7h-17.4v-14.2H592c-0.3,7.4-2.5,11.8-7.4,14.2v45.1  c0,14.8,8.5,22.9,25.3,22.9c3.2,0,6.3-0.4,9.4-1.2v-15.9c-1.6,0.3-3.2,0.4-4.8,0.4c-7.1,0-10.1-2.7-10.1-10.1v-25.5H621.7  L621.7,315.5z M557,318.4h-1.2v-18.7h-18.3v66.9h19.8v-36.2c0-10,4.5-14.2,14.8-14.2c1.7,0,3.7,0.2,6.3,0.6v-17.3  c-1.8-0.6-3.7-0.9-5.6-0.9C564.8,298.6,559.3,303.2,557,318.4L557,318.4z M430.8,350.8c-9.3,0-16-6.2-16-18.1  c0-10.7,6.2-17.3,15.8-17.3c8.2,0,12.9,4.6,14.2,11.9h20c-1.9-17.2-14.2-28.8-34-28.8c-21.7,0-35.9,14.7-35.9,34.8  c0,20.9,13.7,34.3,35.7,34.3c19.9,0,32.9-11.1,34.7-29.1h-20C444.3,346,439.2,350.8,430.8,350.8z M360,298.6  c-17.2,0-27.6,8.5-29.4,23.6h18.9c0.6-5.2,4-8,10-8c6.1,0,8.8,2.8,8.8,6.7c0,3.3-2.1,5.1-7.5,6.1l-9,1.7c-15.9,2.9-22,9.5-22,19.9  c0,11.9,8.4,19.3,19.9,19.3c9.5,0,15.6-4.4,18.5-15.4h1.2v14.2h18.7V323C388.1,307.8,379,298.6,360,298.6z M357.8,354.3  c-5.3,0-8.4-2.8-8.4-7.1c0-3.5,2.1-5.9,7.4-7.1l3.7-0.8c3.2-0.7,5.6-1.7,7.9-3.7v7.1C368.3,350.9,364,354.3,357.8,354.3z   M500.4,298.6c-17.2,0-27.6,8.5-29.4,23.6h18.9c0.6-5.2,4-8,10-8c6.1,0,8.8,2.8,8.8,6.7c0,3.3-2.1,5.1-7.5,6.1l-9,1.7  c-15.9,2.9-22,9.5-22,19.9c0,11.9,8.4,19.3,19.9,19.3c9.5,0,15.6-4.4,18.5-15.4h1.2v14.2h18.7V323  C528.5,307.8,519.4,298.6,500.4,298.6z M498.2,354.3c-5.3,0-8.4-2.8-8.4-7.1c0-3.5,2.1-5.9,7.4-7.1l3.7-0.8c3.2-0.7,5.6-1.7,7.9-3.7  v7.1C508.8,350.9,504.5,354.3,498.2,354.3z"/>
<path class="st1" d="M85,289.6c-4.1,0-7,1.8-9.6,5.6l-7.7,11.1v-31.6H49.3v31.6l-7.7-11.1c-2.7-3.8-5.6-5.6-9.6-5.6  c-6.1,0-10.2,4.5-10.2,10.1c0,4.8,2.2,7.9,7,10.9l29.8,19.2l29.8-19.2c4.7-3.1,7-6.2,7-10.9C95.3,294.2,91.2,289.6,85,289.6z"/>
<path class="st2" d="M58.5,334.5c17.7,0,32.2,13.2,32.2,32.2H26.3C26.3,347.7,40.8,334.5,58.5,334.5z"/>
</svg>